# xmcd CD database file
#
# Track frame offsets:
#	150
#	11365
#	37964
#	60710
#	91447
#	108031
#	144284
#	171533
#	181102
#	204511
#	236574
#	257937
#	278151
#
# Disc length: 3930 seconds
#
# Revision: 1
# Processed by: cddbd v1.5.2PL0 Copyright (c) Steve Scherf et al.
# Submitted via: CDex 1.51
#
DISCID=ab0f580d
DTITLE=The New Mastersounds - Live At La Cova
DYEAR=2005
DGENRE=Funk
TTITLE0=Miracles
TTITLE1=Duffin' Round
TTITLE2=You Got It All
TTITLE3=3 On The B
TTITLE4=Funky Miracle
TTITLE5=Land Of Nod
TTITLE6=The Tin Drum
TTITLE7=La Cova
TTITLE8=The Minx
TTITLE9=Spooky
TTITLE10=Fire Eater
TTITLE11=Jan Jan
TTITLE12=One Note Brown
EXTD=YEAR: 2005
EXTT0=
EXTT1=
EXTT2=
EXTT3=
EXTT4=
EXTT5=
EXTT6=
EXTT7=
EXTT8=
EXTT9=
EXTT10=
EXTT11=
EXTT12=
PLAYORDER=
